<?xml version="1.0" encoding="UTF-8"?>
<svg id="pintura" xmlns="http://www.w3.org/2000/svg" viewBox="0 0 471.03 355">
  <defs>
    <style>
      .cls-1 {
        stroke-width: 0px;
      }
    </style>
  </defs>
  <path class="cls-1" d="m295.75,314.41c4.31,14.15,10.76,28.43,16.54,40.59l5.73-5.09c-4.68-11.4-8.6-23.12-11.67-34.84-3.53-.24-7.06-.46-10.59-.66Z"/>
  <path class="cls-1" d="m145.36,278.48c29.83,2.13,59.19,9.09,87.27,20.69-3.22-3.32-6.64-6.5-10.15-9.44-65.44-54.71-167.31-27.79-222.48-6.73,3,2.64,6.27,4.93,9.7,6.81,5.52,3.02,11.47,4.99,17.68,5.85,31.94-11.9,64.86-17.89,98.14-17.89,6.6,0,13.21.24,19.84.71Z"/>
  <path class="cls-1" d="m297.72,262.06c-.5-9.36-.14-17.96.65-29.62,3.42-50.42,21.76-98.15,54.52-141.86,17.31-23.1,38.95-45.03,60.95-61.78V0c-23.04,18.2-131.88,111.65-127.88,248.08l.08,2.75c.14,5.13.28,10.43.74,15.22,3.6-1.47,7.25-2.8,10.94-3.99Z"/>
  <path class="cls-1" d="m262.42,137.8c24.36,0,44.18-25.03,44.18-55.79s-19.82-55.79-44.18-55.79-44.18,25.03-44.18,55.79,19.82,55.79,44.18,55.79Zm0-104.1c20.24,0,36.71,21.67,36.71,48.31s-16.47,48.31-36.71,48.31-36.71-21.67-36.71-48.31,16.47-48.31,36.71-48.31Z"/>
  <path class="cls-1" d="m221.61,175.08v-23.33c-24.03-22.03-50.5-41.49-78.67-57.86-25.98-15.09-53.57-27.63-82.04-37.3,27.17,16.53,53.95,34.42,79.6,53.18,27.91,20.42,55.2,42.39,81.11,65.31Z"/>
  <path class="cls-1" d="m85.75,313.46l8.03,5.92c36.24-4.08,73.09-6.51,109.51-7.24,7.82-.16,15.66-.23,23.5-.23,54.22,0,108.79,3.72,162.57,11.09l7.47-4.15c-22.8-4.13-46.02-7.48-69.02-9.94-79.81-8.55-161.25-7.02-242.06,4.54Z"/>
  <path class="cls-1" d="m298.24,262.41h0s-11.66,4.25-11.66,4.25c-10.7,4.41-20.98,10.12-30.61,17.4-2.86,2.16-7.27,6.07-10.46,8.97-.34.31-.29.71-.13.95.15.24.48.47.91.3,10.24-4,30.65-11.49,52.32-16.71,10.87-2.62,20.71-4.33,29.25-5.09,52.2-4.61,95.05,7.37,121.82,18.23,3.06-.08,8.93-.88,14.29-5.24,3.93-3.2,6-7.02,7.06-9.74-28.71-10.13-71.06-21.75-114.37-21.75-19.68,0-39.55,2.4-58.42,8.42Z"/>
  <path class="cls-1" d="m288.39,280.74c1.3,8.61,2.63,16.13,4.82,24.61,3.28.23,6.55.48,9.82.74-2.08-9.36-3.54-18.26-4.58-27.96-3.4.82-6.77,1.7-10.07,2.61Z"/>
</svg>