<?xml version="1.0" encoding="UTF-8"?>
<svg id="Camada_1" data-name="Camada 1" xmlns="http://www.w3.org/2000/svg" viewBox="0 0 472.6 356.88">
  <defs>
    <style>
      .cls-1, .cls-2, .cls-3, .cls-4 {
        stroke-width: 0px;
      }

      .cls-2 {
        fill: #efe530;
      }

      .cls-3 {
        fill: #f2e733;
      }

      .cls-4 {
        fill: #3c5aa3;
      }
    </style>
  </defs>
  <g id="pintura">
    <path class="cls-3" d="m296.69,315.44c4.31,14.15,10.76,28.43,16.54,40.59l5.73-5.09c-4.68-11.4-8.6-23.12-11.67-34.84-3.54-.23-7.07-.46-10.6-.66Z"/>
    <path class="cls-4" d="m146.3,279.52c29.83,2.13,59.19,9.09,87.27,20.69-3.22-3.32-6.64-6.5-10.15-9.44-65.44-54.71-167.31-27.79-222.48-6.73,3,2.64,6.27,4.93,9.7,6.81,5.52,3.02,11.47,4.99,17.68,5.85,31.94-11.9,64.86-17.89,98.14-17.89,6.6,0,13.22.23,19.84.71Z"/>
    <path class="cls-2" d="m298.66,263.1c-.5-9.36-.14-17.96.65-29.62,3.42-50.42,21.76-98.15,54.52-141.86,17.31-23.1,38.95-45.03,60.95-61.78V1.03c-23.04,18.2-131.88,111.65-127.88,248.08l.08,2.75c.14,5.13.28,10.43.74,15.22,3.6-1.47,7.25-2.8,10.94-3.98Z"/>
    <path class="cls-3" d="m263.36,138.84c24.36,0,44.18-25.03,44.18-55.79s-19.82-55.79-44.18-55.79-44.18,25.03-44.18,55.79,19.82,55.79,44.18,55.79Zm0-104.1c20.24,0,36.71,21.67,36.71,48.31s-16.47,48.31-36.71,48.31-36.71-21.68-36.71-48.31,16.47-48.31,36.71-48.31Z"/>
    <path class="cls-3" d="m222.55,176.11v-23.33c-24.03-22.03-50.5-41.49-78.67-57.86-25.98-15.09-53.57-27.63-82.04-37.3,27.17,16.53,53.95,34.42,79.6,53.18,27.91,20.42,55.2,42.39,81.11,65.31Z"/>
    <path class="cls-4" d="m86.69,314.49l8.03,5.92c36.24-4.08,73.09-6.51,109.51-7.24,7.82-.16,15.66-.23,23.5-.23,54.22,0,108.79,3.72,162.57,11.09l7.47-4.15c-22.8-4.13-46.02-7.48-69.02-9.94-79.81-8.54-161.25-7.01-242.06,4.55Z"/>
    <path class="cls-4" d="m299.18,263.45h0l-11.66,4.25c-10.7,4.41-20.98,10.12-30.61,17.4-2.86,2.16-7.27,6.07-10.46,8.97-.34.31-.29.71-.13.95.15.24.48.47.91.3,10.24-4,30.65-11.49,52.32-16.71,10.87-2.62,20.71-4.33,29.25-5.09,52.2-4.61,95.05,7.37,121.82,18.23,3.06-.08,8.93-.88,14.29-5.24,3.93-3.2,6-7.02,7.06-9.74-28.71-10.13-71.06-21.75-114.37-21.75-19.67,0-39.54,2.4-58.42,8.43Z"/>
    <path class="cls-3" d="m289.33,281.77c1.3,8.61,2.63,16.13,4.82,24.61,3.28.23,6.55.48,9.82.74-2.08-9.36-3.54-18.26-4.58-27.96-3.39.82-6.76,1.7-10.06,2.61Z"/>
  </g>
  <g id="traço">
    <path class="cls-1" d="m141.15,111.21c28.05,20.52,55.46,42.6,81.49,65.65l.42.37v-24.67l-.08-.07c-24.08-22.08-50.6-41.59-78.84-57.99-26.66-15.48-55.01-28.29-84.27-38.06l-2.13-.71,1.92,1.16c27.82,16.84,55.24,35.12,81.49,54.32Zm2.74-16.29c28.17,16.36,54.64,35.83,78.67,57.86v23.33c-25.91-22.92-53.2-44.89-81.11-65.31-25.65-18.77-52.42-36.65-79.6-53.18,28.46,9.67,56.06,22.21,82.04,37.3Z"/>
    <path class="cls-1" d="m146.26,280.02c29.83,2.13,59.19,9.1,87.27,20.72h0c.06.02.11.03.17.03.14,0,.27-.07.36-.2.13-.19.11-.44-.05-.61-3.26-3.38-6.72-6.6-10.27-9.58-30.06-25.13-70.63-35.79-120.57-31.69-31.61,2.6-66.2,11.02-102.79,25.02l-.38.15.31.27c3.12,2.78,6.52,5.19,10.1,7.15,5.59,3.06,11.62,5.05,17.92,5.92h.06s.06,0,.06,0c38.21-14.25,77.85-20.03,117.81-17.17Zm-117.94,16.68c-6.22-.87-12.16-2.84-17.68-5.85-3.44-1.88-6.7-4.17-9.7-6.81,55.17-21.06,157.04-47.98,222.48,6.73,3.51,2.94,6.93,6.12,10.15,9.44-28.08-11.6-57.44-18.56-87.27-20.69-6.62-.47-13.24-.71-19.84-.71-33.27,0-66.2,5.99-98.14,17.89Z"/>
    <path class="cls-1" d="m299.16,262.94c-.49-9.28-.13-17.84.65-29.42,7.68-113.12,90.25-184.25,115.37-203.35l.1-.08V0l-.4.32c-12.21,9.6-43.71,36.28-72.29,76.42-17.34,24.36-30.9,49.83-40.29,75.7-11.5,31.65-16.84,64.18-15.89,96.69l.08,2.74c.14,5.19.29,10.56.76,15.41-10.7,4.42-20.99,10.14-30.62,17.42-2.87,2.17-7.29,6.09-10.5,9-.53.48-.5,1.15-.22,1.59.21.33.58.6,1.04.6.15,0,.31-.03.47-.09,8.5-3.32,24.01-9.04,41.43-13.88,1.29,8.55,2.61,16.02,4.78,24.44-68.73-4.79-138.4-2.21-207.61,7.74l-.6.09,9.17,6.76h.1c36.26-4.09,73.12-6.53,109.56-7.25,30.54-.61,61.25-.02,91.91,1.74,4.35,14.36,10.91,28.85,16.76,41.14l.14.3,6.5-5.77-.07-.16c-4.68-11.38-8.6-23.08-11.68-34.78,27.61,1.85,55.16,4.65,82.51,8.4h.08s8.83-4.9,8.83-4.9l-.69-.13c-23.04-4.19-46.5-7.58-69.74-10.07-8.09-.87-16.19-1.62-24.31-2.28-2.1-9.41-3.57-18.36-4.61-28.12,10.76-2.59,20.5-4.28,28.96-5.02,52.13-4.6,94.92,7.37,121.63,18.22l.05.02h.05c3.11-.08,9.14-.88,14.64-5.36,4.13-3.36,6.25-7.4,7.3-10.19l.09-.24-.24-.08c-41.74-14.81-112.56-32.78-173.2-13.48Zm-12.18-11.08l-.08-2.75C282.9,112.68,391.74,19.23,414.78,1.03v28.81c-22,16.75-43.64,38.68-60.95,61.78-32.75,43.71-51.1,91.44-54.52,141.86-.79,11.65-1.15,20.26-.65,29.62-3.69,1.19-7.34,2.51-10.94,3.99-.46-4.8-.6-10.1-.74-15.23Zm31.98,99.08l-5.73,5.09c-5.78-12.16-12.23-26.44-16.54-40.59,3.53.2,7.06.43,10.59.66,3.07,11.72,7,23.44,11.68,34.84Zm9.79-41c23,2.46,46.22,5.81,69.02,9.94l-7.47,4.15c-53.77-7.37-108.34-11.09-162.57-11.09-7.84,0-15.68.08-23.5.23-36.42.73-73.27,3.16-109.51,7.24l-8.03-5.92c80.81-11.56,162.25-13.09,242.06-4.55Zm-24.77-2.82c-3.27-.26-6.55-.51-9.82-.74-2.19-8.48-3.52-16-4.82-24.61,3.3-.91,6.67-1.79,10.07-2.61,1.02,9.7,2.48,18.61,4.57,27.96Zm160.93-20.61c-5.36,4.36-11.23,5.16-14.29,5.24-26.77-10.87-69.62-22.85-121.82-18.23-8.54.75-18.38,2.47-29.25,5.09-21.67,5.23-42.09,12.72-52.32,16.71-.43.17-.76-.06-.91-.3-.15-.25-.21-.64.13-.95,3.2-2.9,7.6-6.81,10.46-8.97,9.63-7.27,19.91-12.99,30.61-17.4l11.66-4.25h0c18.88-6.03,38.74-8.43,58.42-8.43,43.3,0,85.66,11.61,114.37,21.75-1.06,2.72-3.13,6.54-7.06,9.74Z"/>
    <path class="cls-1" d="m263.36,139.34c24.64,0,44.68-25.25,44.68-56.29s-20.04-56.29-44.68-56.29-44.68,25.25-44.68,56.29,20.04,56.29,44.68,56.29Zm0-112.08c24.36,0,44.18,25.03,44.18,55.79s-19.82,55.79-44.18,55.79-44.18-25.03-44.18-55.79,19.82-55.79,44.18-55.79Z"/>
    <path class="cls-1" d="m263.36,131.36c20.24,0,36.71-21.67,36.71-48.31s-16.47-48.31-36.71-48.31-36.71,21.67-36.71,48.31,16.47,48.31,36.71,48.31Zm0-96.12c19.97,0,36.21,21.45,36.21,47.81s-16.24,47.81-36.21,47.81-36.21-21.45-36.21-47.81,16.25-47.81,36.21-47.81Z"/>
  </g>
</svg>